<svg xmlns="http://www.w3.org/2000/svg" viewBox="0 0 600 400">
  <!-- Background -->
  <rect x="0" y="0" width="600" height="400" fill="#f9fafb" />
  
  <!-- Report configuration window -->
  <rect x="50" y="50" width="500" height="300" rx="8" fill="#ffffff" stroke="#e5e7eb" stroke-width="2" />
  <rect x="70" y="70" width="220" height="30" rx="4" fill="#4b5563" opacity="0.7" />
  
  <!-- Sidebar -->
  <rect x="70" y="120" width="150" height="200" rx="4" fill="#f3f4f6" />
  <rect x="85" y="140" width="120" height="20" rx="3" fill="#6366f1" opacity="0.2" />
  <rect x="85" y="170" width="120" height="20" rx="3" fill="#e5e7eb" />
  <rect x="85" y="200" width="120" height="20" rx="3" fill="#e5e7eb" />
  <rect x="85" y="230" width="120" height="20" rx="3" fill="#e5e7eb" />
  <rect x="85" y="260" width="120" height="20" rx="3" fill="#e5e7eb" />
  
  <!-- Main configuration area -->
  <rect x="240" y="120" width="280" height="200" rx="4" fill="#ffffff" stroke="#e5e7eb" />
  
  <!-- Form elements -->
  <rect x="260" y="140" width="150" height="20" rx="3" fill="#4b5563" opacity="0.7" />
  
  <!-- Toggle switches -->
  <rect x="260" y="180" width="180" height="12" rx="3" fill="#e5e7eb" />
  <circle cx="280" cy="186" r="10" fill="#6366f1" />
  
  <rect x="260" y="210" width="180" height="12" rx="3" fill="#e5e7eb" />
  <circle cx="420" cy="216" r="10" fill="#d1d5db" />
  
  <rect x="260" y="240" width="180" height="12" rx="3" fill="#e5e7eb" />
  <circle cx="280" cy="246" r="10" fill="#6366f1" />
  
  <!-- Dropdown -->
  <rect x="260" y="270" width="240" height="30" rx="4" fill="#ffffff" stroke="#e5e7eb" />
  <rect x="275" y="280" width="100" height="10" rx="2" fill="#4b5563" opacity="0.4" />
  <path d="M480 280 L470 290 L460 280 Z" fill="#4b5563" />
  
  <!-- Save button -->
  <rect x="400" y="320" width="100" height="35" rx="6" fill="#6366f1" />
  <rect x="415" y="332" width="70" height="12" rx="2" fill="#ffffff" opacity="0.9" />
</svg>