<svg xmlns="http://www.w3.org/2000/svg" viewBox="0 0 600 400">
  <!-- Background -->
  <rect x="0" y="0" width="600" height="400" fill="#f9fafb" />
  
  <!-- Connection window -->
  <rect x="80" y="60" width="440" height="280" rx="8" fill="#ffffff" stroke="#e5e7eb" stroke-width="2" />
  <rect x="100" y="90" width="200" height="30" rx="4" fill="#4b5563" opacity="0.7" />
  
  <!-- Github -->
  <rect x="100" y="140" width="120" height="80" rx="6" fill="#ffffff" stroke="#e5e7eb" stroke-width="2" />
  <circle cx="160" cy="180" r="24" fill="#333333" />
  <path d="M160 156 C145 156 133 168 133 183 C133 195 141 204 151 207 C152 207.2 153 206.8 153 206 C153 205.3 153 203.8 153 202 C146 204 144 198 144 198 C143 195 141 194 141 194 C139 192.5 142 192.5 142 192.5 C145 192.7 146 195.3 146 195.3 C148 199 152 198 153 197.3 C153.2 196 154 195 155 194.5 C149 194 143 192 143 181 C143 178 144 175.5 146 174 C145.8 173.2 145 171 147 167.5 C147 167.5 149 166.8 153 169.5 C155 169 157 168.8 159 168.8 C161 168.8 163 169 165 169.5 C169 166.8 171 167.5 171 167.5 C173 171 172.2 173.2 172 174 C174 175.5 175 178 175 181 C175 192 169 194 163 194.5 C164 195.2 165 196.5 165 198.5 C165 201.5 165 205 165 206 C165 206.8 166 207.2 167 207 C177 204 185 195 185 183 C185 168 173 156 158 156 L160 156 Z" fill="#ffffff" />
  
  <!-- GitLab -->
  <rect x="240" y="140" width="120" height="80" rx="6" fill="#ffffff" stroke="#e5e7eb" stroke-width="2" />
  <path d="M300 165 L305 180 L310 165 L315 180 L310 195 L290 195 L285 180 L290 165 L300 165 Z" fill="#fc6d26" />
  <path d="M300 165 L290 165 L295 180 L300 165 Z" fill="#e24329" />
  <path d="M300 165 L310 165 L305 180 L300 165 Z" fill="#e24329" />
  <path d="M290 165 L285 180 L295 180 L290 165 Z" fill="#fc6d26" />
  <path d="M310 165 L315 180 L305 180 L310 165 Z" fill="#fc6d26" />
  <path d="M295 180 L290 195 L300 195 L295 180 Z" fill="#e24329" />
  <path d="M305 180 L310 195 L300 195 L305 180 Z" fill="#e24329" />
  
  <!-- Bitbucket -->
  <rect x="380" y="140" width="120" height="80" rx="6" fill="#ffffff" stroke="#e5e7eb" stroke-width="2" />
  <path d="M420 165 C414 165 410 169 410 175 L414 195 C414 199 416 200 420 200 C424 200 426 199 426 195 L430 175 C430 169 426 165 420 165 Z M420 170 C421.6 170 423 171.4 423 173 C423 174.6 421.6 176 420 176 C418.4 176 417 174.6 417 173 C417 171.4 418.4 170 420 170 Z M420 196 C418.4 196 417 194.6 417 193 C417 191.4 418.4 190 420 190 C421.6 190 423 191.4 423 193 C423 194.6 421.6 196 420 196 Z" fill="#2684FF" />
  
  <!-- Connected lines -->
  <line x1="160" y1="220" x2="160" y2="250" stroke="#6366f1" stroke-width="2" />
  <line x1="300" y1="220" x2="300" y2="250" stroke="#6366f1" stroke-width="2" />
  <line x1="440" y1="220" x2="440" y2="250" stroke="#6366f1" stroke-width="2" />
  <line x1="160" y1="250" x2="440" y2="250" stroke="#6366f1" stroke-width="2" />
  <line x1="300" y1="250" x2="300" y2="280" stroke="#6366f1" stroke-width="2" />
  <circle cx="300" cy="290" r="10" fill="#6366f1" />
  
  <!-- Connect button -->
  <rect x="230" y="310" width="140" height="40" rx="6" fill="#6366f1" />
  <rect x="245" y="322" width="110" height="16" rx="3" fill="#ffffff" opacity="0.9" />
</svg>